<svg width="245" height="36" viewBox="0 0 245 36" fill="none" xmlns="http://www.w3.org/2000/svg">
<rect width="79" height="36" rx="10" fill="#3A3A3A"/>
<path d="M24.42 22.88L24.44 21.3L24.46 18.36C24.4733 17.9333 24.48 17.4933 24.48 17.04C24.48 16.5867 24.48 16.12 24.48 15.64C24.48 15.16 24.48 14.7333 24.48 14.36C24.48 13.9867 24.4933 13.5667 24.52 13.1V13.02C24.5333 12.8867 24.54 12.7533 24.54 12.62C24.5533 12.4733 24.56 12.3267 24.56 12.18C24.5733 11.94 24.6467 11.68 24.78 11.4C24.8733 11.2133 25.0133 11.0533 25.2 10.92C25.4133 10.8133 25.62 10.76 25.82 10.76C25.9267 10.76 26.02 10.7667 26.1 10.78C26.1933 10.78 26.28 10.7867 26.36 10.8C26.5333 10.8267 26.6867 10.9067 26.82 11.04C26.9 11.1067 26.9733 11.2133 27.04 11.36C27.0667 11.44 27.0867 11.52 27.1 11.6C27.1267 11.6667 27.1467 11.74 27.16 11.82C27.1733 11.9133 27.18 12 27.18 12.08C27.1933 12.16 27.2 12.24 27.2 12.32C27.2 12.4133 27.1933 12.5 27.18 12.58C27.18 12.6467 27.18 12.72 27.18 12.8V13.14L27.06 23.52V23.72C27.06 23.76 27.0533 23.8133 27.04 23.88C27.04 23.9333 27.0333 24 27.02 24.08C26.9933 24.1467 26.9667 24.22 26.94 24.3C26.9267 24.3667 26.9067 24.44 26.88 24.52C26.84 24.5867 26.7933 24.6533 26.74 24.72C26.7 24.7733 26.6467 24.8267 26.58 24.88C26.4733 24.9867 26.3 25.06 26.06 25.1C25.7 25.18 25.36 25.1467 25.04 25C24.88 24.8933 24.7667 24.76 24.7 24.6C24.66 24.56 24.64 24.52 24.64 24.48C24.6267 24.4533 24.6133 24.4333 24.6 24.42C24.5867 24.4067 24.5733 24.3867 24.56 24.36C24.5333 24.2933 24.5133 24.2267 24.5 24.16C24.4867 24.08 24.48 24 24.48 23.92C24.4667 23.8533 24.4533 23.7867 24.44 23.72C24.44 23.6533 24.4333 23.5867 24.42 23.52C24.4067 23.4133 24.4067 23.3 24.42 23.18V22.88ZM41.5855 23.56C41.5721 23.72 41.5521 23.8867 41.5255 24.06C41.4988 24.2333 41.4521 24.3933 41.3855 24.54C41.3188 24.7 41.2321 24.82 41.1255 24.9C40.9788 25.0333 40.8055 25.1067 40.6055 25.12C40.4188 25.1867 40.2388 25.2067 40.0655 25.18C39.8921 25.1533 39.7321 25.1067 39.5855 25.04C39.3988 24.92 39.2588 24.78 39.1655 24.62C39.0855 24.4467 39.0255 24.2667 38.9855 24.08C38.9455 23.8933 38.9255 23.7 38.9255 23.5C38.9255 23.3 38.9255 23.1133 38.9255 22.94V21.38L38.9055 18.32C38.9055 18.1067 38.9055 17.94 38.9055 17.82C38.9055 17.7 38.9055 17.5933 38.9055 17.5C38.9055 17.3933 38.8988 17.28 38.8855 17.16C38.8855 17.0267 38.8855 16.84 38.8855 16.6C38.8855 16.56 38.8855 16.4933 38.8855 16.4C38.8988 16.2933 38.8921 16.02 38.8655 15.58C38.3455 16.4467 37.9121 17.1467 37.5655 17.68C37.2321 18.2 36.9455 18.6067 36.7055 18.9C36.4788 19.18 36.2788 19.3733 36.1055 19.48C35.9321 19.5733 35.7521 19.6267 35.5655 19.64C35.4588 19.6533 35.3521 19.6333 35.2455 19.58C35.1388 19.5267 35.0321 19.46 34.9255 19.38C34.8321 19.3 34.7388 19.22 34.6455 19.14C34.5655 19.0467 34.4988 18.96 34.4455 18.88C34.1255 18.48 33.7655 18 33.3655 17.44C32.9655 16.88 32.5521 16.2 32.1255 15.4C32.1255 15.4133 32.1188 15.6333 32.1055 16.06C32.1055 16.4867 32.1055 17.02 32.1055 17.66C32.1055 18.2867 32.0988 18.9667 32.0855 19.7C32.0855 20.42 32.0788 21.0933 32.0655 21.72C32.0655 22.3467 32.0588 22.8733 32.0455 23.3C32.0321 23.7133 32.0188 23.92 32.0055 23.92C32.0055 24.1467 31.9521 24.36 31.8455 24.56C31.7388 24.7467 31.5921 24.9 31.4055 25.02C31.2321 25.14 31.0255 25.2067 30.7855 25.22C30.5455 25.2333 30.2855 25.1667 30.0055 25.02C29.8321 24.9133 29.6988 24.76 29.6055 24.56C29.5255 24.36 29.4721 24.1733 29.4455 24C29.4321 23.8133 29.4188 23.6333 29.4055 23.46C29.4055 23.2867 29.4055 23.1067 29.4055 22.92L29.4255 21.36L29.4455 18.28V15.6C29.4455 14.44 29.4855 13.3 29.5655 12.18C29.5655 12.0333 29.5788 11.9 29.6055 11.78C29.6455 11.6467 29.6921 11.52 29.7455 11.4C29.8521 11.1867 29.9921 11.0267 30.1655 10.92C30.3655 10.8 30.5788 10.74 30.8055 10.74C30.8988 10.74 30.9855 10.7467 31.0655 10.76C31.1588 10.76 31.2455 10.7667 31.3255 10.78C31.5921 10.8333 31.8188 10.9933 32.0055 11.26C32.2055 11.5133 32.3921 11.7333 32.5655 11.92C32.6721 12.04 32.7855 12.1867 32.9055 12.36C33.0255 12.5333 33.1455 12.7133 33.2655 12.9C33.3855 13.0867 33.4988 13.2667 33.6055 13.44C33.7121 13.6133 33.8055 13.7667 33.8855 13.9C34.2321 14.46 34.5388 14.9733 34.8055 15.44C35.0855 15.9067 35.3455 16.3067 35.5855 16.64C35.6255 16.6 35.6721 16.5467 35.7255 16.48C35.7788 16.4 35.8321 16.32 35.8855 16.24C35.9521 16.1467 36.0055 16.06 36.0455 15.98C36.0988 15.9 36.1388 15.8333 36.1655 15.78C36.2988 15.5667 36.4321 15.36 36.5655 15.16C36.6988 14.9467 36.8388 14.7267 36.9855 14.5C37.1455 14.26 37.3055 14 37.4655 13.72C37.6388 13.44 37.8388 13.12 38.0655 12.76C38.1588 12.6 38.2788 12.4067 38.4255 12.18C38.5721 11.9533 38.7388 11.7333 38.9255 11.52C39.1121 11.3067 39.3055 11.1267 39.5055 10.98C39.7188 10.82 39.9321 10.74 40.1455 10.74C40.2521 10.74 40.3455 10.7467 40.4255 10.76C40.5055 10.76 40.5855 10.7667 40.6655 10.78C40.8255 10.7933 40.9788 10.8667 41.1255 11C41.2321 11.1067 41.3121 11.22 41.3655 11.34C41.4188 11.5133 41.4521 11.66 41.4655 11.78C41.4788 11.8733 41.4855 11.96 41.4855 12.04C41.4988 12.12 41.5055 12.2 41.5055 12.28C41.5055 13.0267 41.5121 13.7667 41.5255 14.5C41.5388 15.2333 41.5455 15.9733 41.5455 16.72C41.5455 17.6267 41.5455 18.56 41.5455 19.52C41.5588 20.48 41.5655 21.4133 41.5655 22.32C41.5655 22.5067 41.5721 22.7067 41.5855 22.92C41.5988 23.1333 41.5988 23.3467 41.5855 23.56ZM53.8341 21.64C54.0074 22.0267 54.0141 22.4067 53.8541 22.78C53.6941 23.14 53.4407 23.4733 53.0941 23.78C52.7474 24.0867 52.3474 24.3533 51.8941 24.58C51.4541 24.8067 51.0341 24.9667 50.6341 25.06C50.1941 25.1533 49.7274 25.1933 49.2341 25.18C48.7541 25.18 48.2674 25.12 47.7741 25C47.2941 24.8933 46.8207 24.7333 46.3541 24.52C45.9007 24.2933 45.4807 24.02 45.0941 23.7C44.6274 23.3133 44.2607 22.8533 43.9941 22.32C43.7407 21.7733 43.5541 21.1933 43.4341 20.58C43.3141 19.9667 43.2474 19.3533 43.2341 18.74C43.2341 18.1133 43.2541 17.5267 43.2941 16.98C43.3341 16.4867 43.4341 15.9733 43.5941 15.44C43.7541 14.9067 43.9741 14.3867 44.2541 13.88C44.5474 13.36 44.8941 12.88 45.2941 12.44C45.7074 12 46.1874 11.6267 46.7341 11.32C47.1474 11.08 47.6074 10.92 48.1141 10.84C48.6341 10.7467 49.1541 10.7267 49.6741 10.78C50.2074 10.82 50.7074 10.9333 51.1741 11.12C51.6541 11.2933 52.0607 11.5333 52.3941 11.84C52.6074 12.0267 52.8274 12.2867 53.0541 12.62C53.2941 12.9533 53.4674 13.2933 53.5741 13.64C53.6807 13.9867 53.6807 14.3133 53.5741 14.62C53.4807 14.9133 53.2141 15.1133 52.7741 15.22C52.5874 15.2733 52.4207 15.2867 52.2741 15.26C52.1274 15.22 51.9941 15.16 51.8741 15.08C51.7541 14.9867 51.6407 14.88 51.5341 14.76C51.4274 14.64 51.3274 14.52 51.2341 14.4C50.9141 14.0133 50.5407 13.7533 50.1141 13.62C49.6874 13.4733 49.2607 13.44 48.8341 13.52C48.4207 13.5867 48.0274 13.76 47.6541 14.04C47.2941 14.3067 47.0141 14.6533 46.8141 15.08C46.6007 15.5333 46.4274 16.0333 46.2941 16.58C46.1741 17.1133 46.1074 17.66 46.0941 18.22C46.0807 18.7667 46.1274 19.3 46.2341 19.82C46.3541 20.34 46.5541 20.8 46.8341 21.2C47.0474 21.52 47.3074 21.78 47.6141 21.98C47.9341 22.18 48.2741 22.32 48.6341 22.4C48.9941 22.48 49.3541 22.4933 49.7141 22.44C50.0874 22.3867 50.4474 22.2667 50.7941 22.08C50.9007 22.0267 51.0141 21.9533 51.1341 21.86C51.2674 21.7533 51.4007 21.6467 51.5341 21.54C51.6674 21.4333 51.8007 21.3333 51.9341 21.24C52.0807 21.1467 52.2341 21.08 52.3941 21.04C52.6341 20.96 52.8941 20.9667 53.1741 21.06C53.4674 21.1533 53.6874 21.3467 53.8341 21.64Z" fill="#FFFEFE"/>
<path d="M88.626 23.022C88.4453 23.022 88.3135 23 88.2305 22.9561C88.1523 22.9072 88.1133 22.834 88.1133 22.7363V14.2769C88.1133 14.1353 88.1426 14.0352 88.2012 13.9766C88.2646 13.918 88.3647 13.8887 88.5015 13.8887H91.1382C91.8999 13.8887 92.5737 14.0718 93.1597 14.438C93.7505 14.7993 94.0459 15.4658 94.0459 16.4375C94.0459 17.1602 93.8774 17.7217 93.5405 18.1221C93.2036 18.5176 92.8252 18.7837 92.4053 18.9204C91.9854 19.0522 91.6069 19.1182 91.27 19.1182H89.2485V22.7363C89.2485 22.834 89.207 22.9072 89.124 22.9561C89.041 23 88.9116 23.022 88.7358 23.022H88.626ZM91.2847 18.1294C91.5044 18.1294 91.7339 18.083 91.9731 17.9902C92.2124 17.8926 92.4199 17.7192 92.5957 17.4702C92.7715 17.2163 92.8594 16.8721 92.8594 16.4375C92.8594 15.8564 92.686 15.4512 92.3394 15.2217C91.9976 14.9922 91.585 14.8774 91.1016 14.8774H89.2485V18.1294H91.2847ZM98.1621 23.0732C97.1807 23.0732 96.4312 22.7803 95.9136 22.1943C95.4009 21.6035 95.1445 20.7466 95.1445 19.6235C95.1445 18.5005 95.4058 17.6362 95.9282 17.0308C96.4507 16.4204 97.1953 16.1152 98.1621 16.1152C99.1191 16.1152 99.8516 16.418 100.359 17.0234C100.867 17.624 101.121 18.4907 101.121 19.6235C101.121 20.7515 100.87 21.6084 100.367 22.1943C99.8687 22.7803 99.1338 23.0732 98.1621 23.0732ZM98.1255 22.1357C98.7603 22.1357 99.229 21.9307 99.5317 21.5205C99.8345 21.1055 99.9858 20.4658 99.9858 19.6016C99.9858 18.7324 99.8345 18.0903 99.5317 17.6753C99.229 17.2603 98.7603 17.0527 98.1255 17.0527C97.4956 17.0527 97.0317 17.2603 96.7339 17.6753C96.436 18.0854 96.2871 18.7275 96.2871 19.6016C96.2871 20.4707 96.4336 21.1104 96.7266 21.5205C97.0244 21.9307 97.4907 22.1357 98.1255 22.1357ZM104.534 23.022C104.217 23.022 104.043 22.9536 104.014 22.8169L102.3 16.6426C102.251 16.5059 102.227 16.4204 102.227 16.3862C102.227 16.2397 102.427 16.1665 102.828 16.1665C103.14 16.1665 103.313 16.2349 103.348 16.3716L104.446 20.5391C104.466 20.6074 104.529 20.8857 104.637 21.374C104.661 21.5059 104.708 21.7231 104.776 22.0259C104.874 21.4253 104.981 20.9248 105.098 20.5244L106.175 16.3862C106.209 16.2397 106.38 16.1665 106.688 16.1665H106.775C107.073 16.1665 107.244 16.2397 107.288 16.3862L108.372 20.5244C108.489 20.9541 108.587 21.3765 108.665 21.7915C108.67 21.8208 108.682 21.894 108.702 22.0112C108.838 21.2886 108.938 20.8027 109.002 20.5537L110.101 16.3716C110.135 16.2349 110.311 16.1665 110.628 16.1665C110.975 16.1665 111.148 16.2397 111.148 16.3862C111.148 16.4399 111.136 16.4985 111.111 16.562L109.361 22.8169C109.332 22.9536 109.161 23.022 108.848 23.022H108.453C108.145 23.022 107.977 22.9536 107.947 22.8169L106.9 18.686C106.836 18.4175 106.773 18.0806 106.709 17.6753C106.646 18.1001 106.58 18.4346 106.512 18.6787L105.45 22.8169C105.42 22.9536 105.245 23.022 104.922 23.022H104.534ZM115.477 23.0732C114.397 23.0732 113.594 22.7925 113.067 22.231C112.544 21.6646 112.283 20.8003 112.283 19.6382C112.283 18.4858 112.54 17.6118 113.052 17.0161C113.565 16.4155 114.319 16.1152 115.315 16.1152C116.204 16.1152 116.873 16.4033 117.322 16.9795C117.776 17.5557 118.003 18.4004 118.003 19.5137C118.003 19.5625 117.977 19.6309 117.923 19.7188C117.874 19.8018 117.813 19.8774 117.74 19.9458C117.671 20.0093 117.613 20.041 117.564 20.041H113.455C113.509 20.7686 113.694 21.3008 114.012 21.6377C114.334 21.9697 114.817 22.1357 115.462 22.1357C115.823 22.1357 116.133 22.0918 116.392 22.0039C116.656 21.916 116.91 21.8086 117.154 21.6816C117.178 21.6719 117.215 21.6548 117.264 21.6304C117.312 21.606 117.347 21.5938 117.366 21.5938C117.42 21.5938 117.481 21.6377 117.549 21.7256C117.623 21.8086 117.684 21.9038 117.732 22.0112C117.786 22.1138 117.813 22.1895 117.813 22.2383C117.813 22.3457 117.706 22.4653 117.491 22.5972C117.276 22.729 116.988 22.8413 116.626 22.9341C116.27 23.0269 115.887 23.0732 115.477 23.0732ZM116.839 19.1035C116.839 17.7363 116.319 17.0527 115.279 17.0527C114.161 17.0527 113.553 17.7363 113.455 19.1035H116.839ZM120.296 23.022C120.11 23.022 119.976 23 119.893 22.9561C119.81 22.9072 119.769 22.834 119.769 22.7363V18.166C119.769 17.5996 119.742 17.1919 119.688 16.9429C119.634 16.689 119.607 16.5498 119.607 16.5254C119.607 16.418 119.688 16.3423 119.849 16.2983C120.015 16.2495 120.171 16.2251 120.318 16.2251C120.435 16.2251 120.523 16.2886 120.582 16.4155C120.64 16.5376 120.691 16.7109 120.735 16.9355L120.772 17.0894C121.236 16.4399 121.739 16.1152 122.281 16.1152C122.53 16.1152 122.718 16.1616 122.845 16.2544C122.972 16.3423 123.035 16.4619 123.035 16.6133C123.035 16.7598 123.008 16.916 122.955 17.082C122.906 17.2432 122.847 17.3237 122.779 17.3237C122.745 17.3237 122.684 17.3091 122.596 17.2798C122.518 17.2456 122.439 17.2212 122.361 17.2065C122.283 17.187 122.183 17.1772 122.061 17.1772C121.861 17.1772 121.67 17.2358 121.49 17.353C121.314 17.4702 121.165 17.5996 121.043 17.7412C120.921 17.8828 120.86 17.9609 120.86 17.9756V22.7363C120.86 22.834 120.818 22.9072 120.735 22.9561C120.652 23 120.523 23.022 120.347 23.022H120.296ZM127.269 23.0732C126.189 23.0732 125.386 22.7925 124.859 22.231C124.336 21.6646 124.075 20.8003 124.075 19.6382C124.075 18.4858 124.332 17.6118 124.844 17.0161C125.357 16.4155 126.111 16.1152 127.107 16.1152C127.996 16.1152 128.665 16.4033 129.114 16.9795C129.568 17.5557 129.795 18.4004 129.795 19.5137C129.795 19.5625 129.769 19.6309 129.715 19.7188C129.666 19.8018 129.605 19.8774 129.532 19.9458C129.463 20.0093 129.405 20.041 129.356 20.041H125.247C125.301 20.7686 125.486 21.3008 125.804 21.6377C126.126 21.9697 126.609 22.1357 127.254 22.1357C127.615 22.1357 127.925 22.0918 128.184 22.0039C128.448 21.916 128.702 21.8086 128.946 21.6816C128.97 21.6719 129.007 21.6548 129.056 21.6304C129.104 21.606 129.139 21.5938 129.158 21.5938C129.212 21.5938 129.273 21.6377 129.341 21.7256C129.415 21.8086 129.476 21.9038 129.524 22.0112C129.578 22.1138 129.605 22.1895 129.605 22.2383C129.605 22.3457 129.498 22.4653 129.283 22.5972C129.068 22.729 128.78 22.8413 128.418 22.9341C128.062 23.0269 127.679 23.0732 127.269 23.0732ZM128.631 19.1035C128.631 17.7363 128.111 17.0527 127.071 17.0527C125.953 17.0527 125.345 17.7363 125.247 19.1035H128.631ZM133.589 23.0732C133.082 23.0732 132.637 22.9268 132.256 22.6338C131.875 22.3359 131.58 21.9233 131.37 21.396C131.165 20.8687 131.062 20.2705 131.062 19.6016C131.062 18.8643 131.172 18.2344 131.392 17.7119C131.617 17.1846 131.929 16.7866 132.33 16.5181C132.73 16.2495 133.191 16.1152 133.714 16.1152C134.09 16.1152 134.422 16.1714 134.71 16.2837C135.003 16.396 135.291 16.5596 135.574 16.7744V13.4932C135.574 13.3027 135.745 13.2075 136.087 13.2075H136.146C136.492 13.2075 136.666 13.3027 136.666 13.4932V21.0737C136.666 21.6401 136.692 22.0503 136.746 22.3042C136.8 22.5532 136.827 22.6899 136.827 22.7144C136.827 22.8218 136.744 22.8999 136.578 22.9487C136.417 22.9927 136.265 23.0146 136.124 23.0146C136.026 23.0146 135.948 22.9683 135.889 22.8755C135.831 22.7827 135.789 22.6899 135.765 22.5972C135.745 22.4995 135.711 22.3335 135.662 22.0991C135.042 22.7485 134.351 23.0732 133.589 23.0732ZM133.816 22.1284C134.104 22.1284 134.402 22.0503 134.71 21.894C135.022 21.7378 135.311 21.5156 135.574 21.2275V17.6606C135.105 17.27 134.571 17.0747 133.97 17.0747C133.389 17.0894 132.95 17.3018 132.652 17.7119C132.359 18.1221 132.212 18.7178 132.212 19.499C132.212 20.3389 132.349 20.9883 132.623 21.4473C132.901 21.9014 133.299 22.1284 133.816 22.1284ZM145.074 23.0732C144.312 23.0732 143.621 22.7485 143.001 22.0991C142.962 22.3677 142.891 22.624 142.789 22.8682C142.769 22.9268 142.73 22.9683 142.671 22.9927C142.618 23.0122 142.542 23.022 142.444 23.022H142.393C142.256 23.022 142.156 23 142.093 22.9561C142.034 22.9072 142.005 22.834 142.005 22.7363V13.4932C142.005 13.3027 142.176 13.2075 142.518 13.2075H142.576C142.918 13.2075 143.089 13.3027 143.089 13.4932V16.7744C143.372 16.5596 143.66 16.396 143.953 16.2837C144.246 16.1714 144.581 16.1152 144.957 16.1152C145.474 16.1152 145.933 16.2495 146.333 16.5181C146.734 16.7866 147.044 17.1821 147.264 17.7046C147.488 18.2271 147.601 18.8545 147.601 19.5869C147.601 20.2607 147.498 20.8638 147.293 21.396C147.088 21.9233 146.795 22.3359 146.414 22.6338C146.033 22.9268 145.586 23.0732 145.074 23.0732ZM144.854 22.1284C145.367 22.1284 145.76 21.9014 146.033 21.4473C146.312 20.9883 146.451 20.3389 146.451 19.499C146.451 18.7178 146.304 18.1221 146.011 17.7119C145.718 17.3018 145.284 17.0894 144.708 17.0747C144.419 17.0747 144.136 17.1235 143.858 17.2212C143.58 17.3188 143.323 17.4653 143.089 17.6606V21.2275C143.357 21.5156 143.646 21.7378 143.953 21.894C144.261 22.0503 144.561 22.1284 144.854 22.1284ZM150.127 25.71C149.844 25.71 149.703 25.6392 149.703 25.4976C149.703 25.4634 149.722 25.3926 149.761 25.2852L150.853 22.6338L148.575 16.5547C148.57 16.5352 148.562 16.5083 148.553 16.4741C148.543 16.4351 148.538 16.4058 148.538 16.3862C148.538 16.3179 148.584 16.2642 148.677 16.2251C148.77 16.186 148.912 16.1665 149.102 16.1665H149.205C149.498 16.1665 149.671 16.2349 149.725 16.3716L151.05 19.9019C151.167 20.2095 151.307 20.6465 151.468 21.2129H151.49L151.644 20.7295C151.668 20.6562 151.709 20.5317 151.768 20.356C151.827 20.1753 151.88 20.0239 151.929 19.9019L153.226 16.3716C153.27 16.2349 153.448 16.1665 153.76 16.1665H153.804C154.146 16.1665 154.317 16.2397 154.317 16.3862C154.317 16.4204 154.305 16.479 154.28 16.562L150.94 25.439C150.862 25.6196 150.657 25.71 150.325 25.71H150.127ZM159.495 23.022C159.144 23.022 158.968 22.9268 158.968 22.7363V14.145C158.968 13.9497 159.144 13.8521 159.495 13.8521H159.598C159.944 13.8521 160.118 13.9497 160.118 14.145V22.7363C160.118 22.9268 159.944 23.022 159.598 23.022H159.495ZM163.912 23.1245C163.545 23.1245 163.204 23.0781 162.886 22.9854C162.569 22.8926 162.315 22.7803 162.125 22.6484C161.939 22.5117 161.846 22.3921 161.846 22.2896C161.846 22.2407 161.871 22.1626 161.919 22.0552C161.973 21.9478 162.034 21.8525 162.103 21.7695C162.176 21.6816 162.242 21.6377 162.3 21.6377C162.315 21.6377 162.359 21.6621 162.432 21.7109C162.627 21.8379 162.833 21.9453 163.047 22.0332C163.267 22.1211 163.528 22.165 163.831 22.165C164.681 22.165 165.105 21.8135 165.105 21.1104C165.105 20.9102 165.064 20.7417 164.981 20.605C164.903 20.4683 164.769 20.3486 164.578 20.2461C164.393 20.1387 164.136 20.0361 163.809 19.9385C163.34 19.8018 162.974 19.6455 162.71 19.4697C162.452 19.2939 162.269 19.0889 162.161 18.8545C162.054 18.6152 162 18.3271 162 17.9902C162 17.6289 162.09 17.3042 162.271 17.0161C162.457 16.728 162.713 16.5034 163.04 16.3423C163.372 16.1812 163.746 16.1006 164.161 16.1006C164.449 16.1006 164.725 16.1274 164.988 16.1812C165.257 16.2349 165.472 16.3057 165.633 16.3936C165.799 16.4766 165.882 16.5645 165.882 16.6572C165.882 16.7256 165.857 16.8184 165.809 16.9355C165.765 17.0479 165.708 17.1479 165.64 17.2358C165.572 17.3188 165.511 17.3604 165.457 17.3604C165.447 17.3604 165.386 17.3311 165.274 17.2725C165.162 17.209 165.018 17.1528 164.842 17.104C164.671 17.0503 164.48 17.0234 164.271 17.0234C163.938 17.0234 163.663 17.0991 163.443 17.2505C163.228 17.397 163.121 17.5947 163.121 17.8438C163.121 18.1367 163.199 18.3711 163.355 18.5469C163.511 18.7227 163.77 18.8667 164.131 18.979C164.688 19.1499 165.113 19.3208 165.406 19.4917C165.699 19.6626 165.906 19.8726 166.028 20.1216C166.155 20.3657 166.219 20.688 166.219 21.0884C166.219 21.4692 166.116 21.8159 165.911 22.1284C165.706 22.436 165.428 22.6802 165.076 22.8608C164.725 23.0366 164.336 23.1245 163.912 23.1245ZM169.625 23.0732C168.96 23.0732 168.423 22.9097 168.013 22.5825C167.603 22.2554 167.398 21.7695 167.398 21.125C167.398 20.4463 167.605 19.936 168.021 19.5942C168.436 19.2476 168.941 19.0254 169.537 18.9277C170.137 18.8252 170.865 18.7666 171.719 18.752V18.1367C171.719 17.8096 171.607 17.5483 171.382 17.353C171.163 17.1528 170.799 17.0527 170.291 17.0527C169.905 17.0527 169.566 17.0991 169.273 17.1919C168.985 17.2798 168.714 17.3872 168.46 17.5142C168.353 17.5679 168.287 17.5947 168.262 17.5947C168.204 17.5947 168.138 17.5532 168.064 17.4702C167.996 17.3823 167.935 17.2847 167.881 17.1772C167.833 17.0698 167.808 16.9917 167.808 16.9429C167.808 16.8306 167.923 16.7085 168.152 16.5767C168.387 16.4448 168.692 16.335 169.068 16.2471C169.444 16.1592 169.837 16.1152 170.247 16.1152C171.062 16.1152 171.695 16.2935 172.144 16.6499C172.593 17.0063 172.818 17.5068 172.818 18.1514V21.0737C172.818 21.6401 172.842 22.0503 172.891 22.3042C172.945 22.5532 172.972 22.6899 172.972 22.7144C172.972 22.8218 172.889 22.8999 172.723 22.9487C172.562 22.9927 172.41 23.0146 172.269 23.0146C172.151 23.0146 172.063 22.9487 172.005 22.8169C171.951 22.6851 171.897 22.4946 171.844 22.2456L171.814 22.0991C171.546 22.397 171.229 22.6338 170.862 22.8096C170.501 22.9854 170.088 23.0732 169.625 23.0732ZM169.683 22.1284C170.113 22.1284 170.479 22.0503 170.782 21.894C171.084 21.7378 171.397 21.5156 171.719 21.2275V19.6895C171.075 19.6943 170.545 19.7212 170.13 19.77C169.715 19.8188 169.351 19.9434 169.039 20.1436C168.726 20.3389 168.57 20.644 168.57 21.0591C168.57 21.4058 168.663 21.6719 168.848 21.8574C169.039 22.0381 169.317 22.1284 169.683 22.1284ZM179.563 25.71C179.222 25.71 179.051 25.6147 179.051 25.4243V22.4141C178.768 22.6289 178.479 22.7925 178.187 22.9048C177.898 23.0171 177.566 23.0732 177.19 23.0732C176.668 23.0732 176.207 22.939 175.806 22.6704C175.411 22.4019 175.101 22.0088 174.876 21.4912C174.651 20.9688 174.539 20.3438 174.539 19.6162C174.539 18.9326 174.642 18.3271 174.847 17.7998C175.052 17.2676 175.345 16.855 175.726 16.562C176.111 16.2642 176.558 16.1152 177.066 16.1152C177.828 16.1152 178.519 16.4399 179.139 17.0894C179.202 16.7573 179.273 16.4985 179.351 16.313C179.375 16.2593 179.415 16.2227 179.468 16.2031C179.527 16.1787 179.605 16.1665 179.703 16.1665H179.754C180.013 16.1665 180.142 16.2617 180.142 16.4521V25.4243C180.142 25.6147 179.969 25.71 179.622 25.71H179.563ZM177.439 22.1138C178.035 22.1138 178.572 21.9185 179.051 21.5278V17.9609C178.787 17.6729 178.499 17.4507 178.187 17.2944C177.879 17.1382 177.581 17.0601 177.293 17.0601C176.775 17.0601 176.377 17.2896 176.099 17.7485C175.826 18.2026 175.689 18.8496 175.689 19.6895C175.689 20.4707 175.835 21.0664 176.128 21.4766C176.421 21.8867 176.858 22.0991 177.439 22.1138ZM184.346 23.0732C183.682 23.0732 183.162 22.8877 182.786 22.5166C182.41 22.1406 182.222 21.623 182.222 20.9639V16.4521C182.222 16.2617 182.398 16.1665 182.75 16.1665H182.801C183.147 16.1665 183.321 16.2617 183.321 16.4521V20.8613C183.321 21.2617 183.436 21.5742 183.665 21.7988C183.899 22.0186 184.227 22.1284 184.646 22.1284C184.939 22.1284 185.232 22.0479 185.525 21.8867C185.818 21.7207 186.072 21.4961 186.287 21.2129V16.4521C186.287 16.2617 186.46 16.1665 186.807 16.1665H186.858C187.21 16.1665 187.386 16.2617 187.386 16.4521V21.0737C187.386 21.6401 187.41 22.0503 187.459 22.3042C187.508 22.5532 187.532 22.6899 187.532 22.7144C187.532 22.8218 187.452 22.8999 187.291 22.9487C187.129 22.9927 186.978 23.0146 186.836 23.0146C186.714 23.0146 186.624 22.9463 186.565 22.8096C186.507 22.668 186.463 22.5239 186.434 22.3774C186.409 22.231 186.392 22.1382 186.382 22.0991C186.109 22.4067 185.792 22.646 185.43 22.8169C185.074 22.9878 184.712 23.0732 184.346 23.0732ZM192.41 23.0732C191.331 23.0732 190.528 22.7925 190 22.231C189.478 21.6646 189.217 20.8003 189.217 19.6382C189.217 18.4858 189.473 17.6118 189.986 17.0161C190.499 16.4155 191.253 16.1152 192.249 16.1152C193.138 16.1152 193.807 16.4033 194.256 16.9795C194.71 17.5557 194.937 18.4004 194.937 19.5137C194.937 19.5625 194.91 19.6309 194.856 19.7188C194.808 19.8018 194.747 19.8774 194.673 19.9458C194.605 20.0093 194.546 20.041 194.498 20.041H190.389C190.442 20.7686 190.628 21.3008 190.945 21.6377C191.268 21.9697 191.751 22.1357 192.396 22.1357C192.757 22.1357 193.067 22.0918 193.326 22.0039C193.589 21.916 193.843 21.8086 194.087 21.6816C194.112 21.6719 194.148 21.6548 194.197 21.6304C194.246 21.606 194.28 21.5938 194.3 21.5938C194.354 21.5938 194.415 21.6377 194.483 21.7256C194.556 21.8086 194.617 21.9038 194.666 22.0112C194.72 22.1138 194.747 22.1895 194.747 22.2383C194.747 22.3457 194.639 22.4653 194.424 22.5972C194.209 22.729 193.921 22.8413 193.56 22.9341C193.204 23.0269 192.82 23.0732 192.41 23.0732ZM193.772 19.1035C193.772 17.7363 193.252 17.0527 192.212 17.0527C191.094 17.0527 190.486 17.7363 190.389 19.1035H193.772ZM199.383 23.022C199.188 23.022 199.046 23.0049 198.958 22.9707C198.87 22.9316 198.826 22.8755 198.826 22.8022C198.826 22.7681 198.838 22.7095 198.863 22.6265L201.946 14.0645C201.995 13.9229 202.168 13.8521 202.466 13.8521H202.847C203.145 13.8521 203.318 13.9229 203.367 14.0645L206.451 22.6338C206.475 22.6875 206.487 22.7437 206.487 22.8022C206.487 22.9487 206.304 23.022 205.938 23.022H205.828C205.525 23.022 205.35 22.9536 205.301 22.8169L204.539 20.6782H200.716L199.969 22.8169C199.925 22.9536 199.751 23.022 199.449 23.022H199.383ZM204.188 19.6895L202.825 15.8149C202.786 15.7075 202.754 15.5854 202.73 15.4487C202.706 15.312 202.684 15.1802 202.664 15.0532H202.635C202.576 15.3804 202.51 15.6343 202.437 15.8149L201.075 19.6895H204.188ZM214.668 16.1152C215.21 16.1152 215.687 16.269 216.097 16.5767C216.507 16.8843 216.712 17.4312 216.712 18.2173V22.7363C216.712 22.834 216.67 22.9072 216.587 22.9561C216.504 23 216.373 23.022 216.192 23.022H216.148C215.962 23.022 215.828 23 215.745 22.9561C215.662 22.9072 215.621 22.834 215.621 22.7363V18.3271C215.621 17.9316 215.513 17.6216 215.298 17.397C215.088 17.1724 214.778 17.0601 214.368 17.0601C214.026 17.0601 213.716 17.1602 213.438 17.3604C213.165 17.5557 212.942 17.7607 212.771 17.9756C212.781 18.0928 212.786 18.1807 212.786 18.2393V22.7363C212.786 22.9268 212.61 23.022 212.259 23.022H212.208C211.861 23.022 211.688 22.9268 211.688 22.7363V18.3271C211.688 17.9316 211.58 17.6216 211.365 17.397C211.155 17.1724 210.845 17.0601 210.435 17.0601C210.152 17.0601 209.893 17.1284 209.659 17.2651C209.424 17.397 209.229 17.541 209.073 17.6973C208.921 17.8535 208.846 17.9414 208.846 17.9609V22.7363C208.846 22.834 208.804 22.9072 208.721 22.9561C208.643 23 208.514 23.022 208.333 23.022H208.274C208.094 23.022 207.962 23 207.879 22.9561C207.801 22.9072 207.762 22.834 207.762 22.7363V18.166C207.762 17.5996 207.735 17.1919 207.681 16.9429C207.627 16.689 207.601 16.5498 207.601 16.5254C207.601 16.418 207.681 16.3423 207.842 16.2983C208.008 16.2495 208.162 16.2251 208.304 16.2251C208.426 16.2251 208.516 16.291 208.575 16.4229C208.633 16.5547 208.675 16.689 208.699 16.8257C208.729 16.9624 208.748 17.0503 208.758 17.0894C208.997 16.811 209.29 16.5791 209.637 16.3936C209.983 16.208 210.35 16.1152 210.735 16.1152C211.131 16.1152 211.5 16.1958 211.841 16.3569C212.183 16.5132 212.435 16.7915 212.596 17.1919C212.864 16.8745 213.179 16.6157 213.541 16.4155C213.902 16.2153 214.278 16.1152 214.668 16.1152ZM221.429 23.0732C220.447 23.0732 219.698 22.7803 219.18 22.1943C218.667 21.6035 218.411 20.7466 218.411 19.6235C218.411 18.5005 218.672 17.6362 219.195 17.0308C219.717 16.4204 220.462 16.1152 221.429 16.1152C222.386 16.1152 223.118 16.418 223.626 17.0234C224.134 17.624 224.388 18.4907 224.388 19.6235C224.388 20.7515 224.136 21.6084 223.633 22.1943C223.135 22.7803 222.4 23.0732 221.429 23.0732ZM221.392 22.1357C222.027 22.1357 222.496 21.9307 222.798 21.5205C223.101 21.1055 223.252 20.4658 223.252 19.6016C223.252 18.7324 223.101 18.0903 222.798 17.6753C222.496 17.2603 222.027 17.0527 221.392 17.0527C220.762 17.0527 220.298 17.2603 220 17.6753C219.703 18.0854 219.554 18.7275 219.554 19.6016C219.554 20.4707 219.7 21.1104 219.993 21.5205C220.291 21.9307 220.757 22.1357 221.392 22.1357ZM226.805 23.022C226.619 23.022 226.485 23 226.402 22.9561C226.319 22.9072 226.277 22.834 226.277 22.7363V18.166C226.277 17.5996 226.25 17.1919 226.197 16.9429C226.143 16.689 226.116 16.5498 226.116 16.5254C226.116 16.418 226.197 16.3423 226.358 16.2983C226.524 16.2495 226.68 16.2251 226.827 16.2251C226.944 16.2251 227.032 16.2886 227.09 16.4155C227.149 16.5376 227.2 16.7109 227.244 16.9355L227.281 17.0894C227.745 16.4399 228.248 16.1152 228.79 16.1152C229.039 16.1152 229.227 16.1616 229.354 16.2544C229.48 16.3423 229.544 16.4619 229.544 16.6133C229.544 16.7598 229.517 16.916 229.463 17.082C229.415 17.2432 229.356 17.3237 229.288 17.3237C229.253 17.3237 229.192 17.3091 229.104 17.2798C229.026 17.2456 228.948 17.2212 228.87 17.2065C228.792 17.187 228.692 17.1772 228.57 17.1772C228.37 17.1772 228.179 17.2358 227.999 17.353C227.823 17.4702 227.674 17.5996 227.552 17.7412C227.43 17.8828 227.369 17.9609 227.369 17.9756V22.7363C227.369 22.834 227.327 22.9072 227.244 22.9561C227.161 23 227.032 23.022 226.856 23.022H226.805ZM231.521 14.5479C231.175 14.5479 231.001 14.4526 231.001 14.2622V13.4932C231.001 13.3027 231.175 13.2075 231.521 13.2075H231.675C232.027 13.2075 232.203 13.3027 232.203 13.4932V14.2622C232.203 14.4526 232.027 14.5479 231.675 14.5479H231.521ZM231.573 23.022C231.226 23.022 231.053 22.9268 231.053 22.7363V16.4521C231.053 16.2617 231.226 16.1665 231.573 16.1665H231.624C231.976 16.1665 232.151 16.2617 232.151 16.4521V22.7363C232.151 22.9268 231.976 23.022 231.624 23.022H231.573ZM241.343 16.1152C241.885 16.1152 242.361 16.269 242.771 16.5767C243.182 16.8843 243.387 17.4312 243.387 18.2173V22.7363C243.387 22.834 243.345 22.9072 243.262 22.9561C243.179 23 243.047 23.022 242.867 23.022H242.823C242.637 23.022 242.503 23 242.42 22.9561C242.337 22.9072 242.295 22.834 242.295 22.7363V18.3271C242.295 17.9316 242.188 17.6216 241.973 17.397C241.763 17.1724 241.453 17.0601 241.043 17.0601C240.701 17.0601 240.391 17.1602 240.113 17.3604C239.839 17.5557 239.617 17.7607 239.446 17.9756C239.456 18.0928 239.461 18.1807 239.461 18.2393V22.7363C239.461 22.9268 239.285 23.022 238.934 23.022H238.882C238.536 23.022 238.362 22.9268 238.362 22.7363V18.3271C238.362 17.9316 238.255 17.6216 238.04 17.397C237.83 17.1724 237.52 17.0601 237.11 17.0601C236.827 17.0601 236.568 17.1284 236.333 17.2651C236.099 17.397 235.904 17.541 235.748 17.6973C235.596 17.8535 235.521 17.9414 235.521 17.9609V22.7363C235.521 22.834 235.479 22.9072 235.396 22.9561C235.318 23 235.188 23.022 235.008 23.022H234.949C234.769 23.022 234.637 23 234.554 22.9561C234.476 22.9072 234.437 22.834 234.437 22.7363V18.166C234.437 17.5996 234.41 17.1919 234.356 16.9429C234.302 16.689 234.275 16.5498 234.275 16.5254C234.275 16.418 234.356 16.3423 234.517 16.2983C234.683 16.2495 234.837 16.2251 234.979 16.2251C235.101 16.2251 235.191 16.291 235.25 16.4229C235.308 16.5547 235.35 16.689 235.374 16.8257C235.403 16.9624 235.423 17.0503 235.433 17.0894C235.672 16.811 235.965 16.5791 236.312 16.3936C236.658 16.208 237.024 16.1152 237.41 16.1152C237.806 16.1152 238.174 16.1958 238.516 16.3569C238.858 16.5132 239.109 16.7915 239.271 17.1919C239.539 16.8745 239.854 16.6157 240.215 16.4155C240.577 16.2153 240.953 16.1152 241.343 16.1152Z" fill="#949494"/>
</svg>
